<svg id="Layer_1" data-name="Layer 1" xmlns="http://www.w3.org/2000/svg" viewBox="0 0 95.97 140"><defs><style>.cls-1{fill-rule:evenodd;}</style></defs><title>목천초등학교</title>
<path class="cls-1" d="M51.63,3.48c9.14-6.32,9.83,6.19,18.81-1.62V14.61C61.87,22.31,60,9.86,51.63,16.19V3.48ZM47.29,0h1.39a1.26,1.26,0,0,1,1.26,1.26V19.88a1.24,1.24,0,0,1,0,.27L73.44,33.64V45H88.11A7.87,7.87,0,0,1,96,52.84v68.24a1.8,1.8,0,0,1-1.8,1.8H1.8a1.81,1.81,0,0,1-1.8-1.8V52.84a7.82,7.82,0,0,1,2.31-5.55h0A7.85,7.85,0,0,1,7.86,45H22.54V33.64L46.06,20.15a1.12,1.12,0,0,1,0-.27V1.26A1.27,1.27,0,0,1,47.29,0ZM46.13,29.75a1.41,1.41,0,0,1,2.81,0v5.42h4A1.41,1.41,0,0,1,53,38H47.53a1.41,1.41,0,0,1-1.4-1.41V29.75ZM48,25.44A9.55,9.55,0,1,1,38.43,35,9.54,9.54,0,0,1,48,25.44ZM36.05,119.18v.09H59.93V89a13.4,13.4,0,0,0-3.47-9.23,11.75,11.75,0,0,0-16.93,0A13.4,13.4,0,0,0,36.05,89v30.19Zm-3.61.09V89a17,17,0,0,1,4.46-11.7,15.32,15.32,0,0,1,22.17,0A17,17,0,0,1,63.53,89v30.28H92.37V52.84a4.29,4.29,0,0,0-4.26-4.26H7.86a4.23,4.23,0,0,0-3,1.25h0a4.21,4.21,0,0,0-1.24,3v66.43ZM8.66,105.46h7.61v5.92H8.66v-5.92Zm0-12.24h7.61v5.92H8.66V93.22ZM8.66,81h7.61v5.92H8.66V81Zm11.78,24.49h7.62v5.92H20.44v-5.92Zm0-12.24h7.62v5.92H20.44V93.22Zm0-12.25h7.62v5.92H20.44V81Zm47.47,24.49h7.62v5.92H67.91v-5.92Zm0-12.24h7.62v5.92H67.91V93.22Zm0-12.25h7.62v5.92H67.91V81ZM79.7,105.46h7.62v5.92H79.7v-5.92Zm0-12.24h7.62v5.92H79.7V93.22ZM79.7,81h7.62v5.92H79.7V81Z"/>
<text x="48" y="136" font-family="'Nanum Gothic', 'Apple SD Gothic Neo', sans-serif" font-size="13" font-weight="700" fill="#333" text-anchor="middle" letter-spacing="1">목천초등학교</text>
</svg>
